<mxfile host="app.diagrams.net" modified="2020-10-07T09:48:33.296Z" agent="5.0 (X11; Linux x86_64) AppleWebKit/537.36 (KHTML, like Gecko) Chrome/85.0.4183.121 Safari/537.36" etag="0VHhgoMj2gFSSCIFtIve" version="13.7.7" type="github">
  <diagram id="xyWovm86vyTXFSJXz5_D" name="Page-1">
    <mxGraphModel dx="981" dy="509" grid="1" gridSize="10" guides="1" tooltips="1" connect="1" arrows="1" fold="1" page="0" pageScale="1" pageWidth="827" pageHeight="1169" math="0" shadow="0">
      <root>
        <mxCell id="0" />
        <mxCell id="1" parent="0" />
        <mxCell id="AhVlZIoh6rpYxklJBr56-1" value="" style="shape=process;whiteSpace=wrap;html=1;backgroundOutline=1;strokeWidth=3;" parent="1" vertex="1">
          <mxGeometry x="519" y="315" width="120" height="60" as="geometry" />
        </mxCell>
        <mxCell id="AhVlZIoh6rpYxklJBr56-2" value="&lt;b&gt;&lt;font style=&quot;font-size: 14px&quot;&gt;registry&lt;/font&gt;&lt;/b&gt;" style="rounded=0;whiteSpace=wrap;html=1;strokeWidth=3;opacity=0;" parent="1" vertex="1">
          <mxGeometry x="519" y="314" width="120" height="60" as="geometry" />
        </mxCell>
        <mxCell id="AhVlZIoh6rpYxklJBr56-3" value="&lt;b&gt;&lt;font style=&quot;font-size: 14px&quot;&gt;prod&lt;/font&gt;&lt;/b&gt;" style="rounded=0;whiteSpace=wrap;html=1;strokeWidth=3;opacity=0;" parent="1" vertex="1">
          <mxGeometry x="564" y="170" width="120" height="60" as="geometry" />
        </mxCell>
        <mxCell id="AhVlZIoh6rpYxklJBr56-4" value="&lt;span style=&quot;font-size: 14px&quot;&gt;&lt;b&gt;deploy host&lt;/b&gt;&lt;/span&gt;" style="rounded=0;whiteSpace=wrap;html=1;strokeWidth=3;opacity=0;" parent="1" vertex="1">
          <mxGeometry x="350" y="255" width="120" height="60" as="geometry" />
        </mxCell>
        <mxCell id="AhVlZIoh6rpYxklJBr56-21" style="edgeStyle=orthogonalEdgeStyle;rounded=0;orthogonalLoop=1;jettySize=auto;html=1;" parent="1" source="AhVlZIoh6rpYxklJBr56-7" edge="1">
          <mxGeometry relative="1" as="geometry">
            <mxPoint x="509.9999999999998" y="347.5" as="targetPoint" />
          </mxGeometry>
        </mxCell>
        <mxCell id="AhVlZIoh6rpYxklJBr56-7" value="" style="shape=image;verticalLabelPosition=bottom;labelBackgroundColor=#ffffff;verticalAlign=top;aspect=fixed;imageAspect=0;image=data:image/png,iVBORw0KGgoAAAANSUhEUgAAAOAAAADhCAMAAADmr0l2AAAAkFBMVEUaGRj///8AAAAYFxYRDw4VFBMLCQdPT04TEhAEAADQ0NAODAvz8/P4+PjW1tb6+vrm5ubs7Oze3t7IyMjBwcHCwsKhoaGcnJyvr6+oqKiysrKLi4tqaWk6OjnZ2dl/f35IR0d0dHNZWVktLCsfHh1UU1MzMzJAPz+UlJNtbGwkIyOEhIR6enqPj49gYF9CQkGr7M25AAAN90lEQVR4nNVd6XrqOAw1ysLahZYulFKgtHQd7vu/3WRhSSQ7iW0p0PNv7vQjObEtSzqyrDot4OL68u5p+vA5Wyx+fxeLn/8+7x8ntzfjNp6tRH99NHicbTewRz/OcfgHWK4eJjeiryBGcDz57zXjMIyUEUEvI7te3Q+uhN5DhODN41c/pRaYqZUQpTTns8lI4F3YCV5MVsnbxk25HdFLSX5ecr8PL8HxdOlErkhydcf6SowER9MPgNCZ3A5BMl2/bvneio3gJDEpPV92OyQcf7hsKw/B61liUpjYZQiS9fjE8mocBAfJ4LmvOxNCgBmDK+BP8GnNO3hHJMP45T1TfQlOe1CxkXsjhnfPjcOP4DQWpZdiCO8vpyL4pASWHkUI2+tTEBxsxEdvjxh+L9omON6y7XpNAHDfLsFPiFukl1H8HrRHcPANLdNLEMHKJaRyIfjb2uIrA2DSBsFBeILhyxHA1noQrQn+nGj4csRgG2hYErxen2z4cgSwkCT42OreoAdsrFxwK4JfJx6+HKGVrbEgODr19DwAfiQIDvzTEWyALj/Bx1Yc66aI35ouxKYEf85leu7Qg4ZxYkOC2zPjl+4XzUxNM4LLs+OXAKZcBK82/VOT0QI+eQhefLcdGjVFk+2inuDoTShpxoAGflstwZE6n+2Pop5hHcGL73Pm12CW1hFcn+/8zFFnaWoIfpyrfTmiZreoJvh6jvsfRvWOX0lw9Rf4JQyrvLYqgg9/g1/itVV43hUEJ3+EX+J5v7kQvP4z/JLoyRwfGgleRafMntnCvB0aCb4LbRBRHEu4DkZTaiL4KTNBATZfq66E4m0yNAaCAxF+wV51f+JXvXtrG4JXIgmYAA6K+9WcnSH8WhB8FVmAUKgouKqq0XP8eW2JlJbgo8gELbvF/LtsADoZWEdwLGRgysrQN/sQxq8NCXZFQqQ+WiNT/s8ImuIoDUGZCVpagSmu+B+jm6SU4Egmhd37hx/0y5+r6z83ILiVcWHo9LkRmClAKhUIwVuZCRoA+ZKdf/w+W0TiCkKQ37hlgP8owSeJIXyoIXgvFCRpXUWJ1Q6osh0RlPHRlBrqtqjOfwJfs7+qJLiQGkBtcYSIR4G2IyX/xASRIWh5FXAphu8VBL+EolxTKZ2IyS5vFSWCYmkYrRucPV7AZocll6JE8FloAOOVgZ+M0S4NYZGg3AAaM7MXEo8MlwaCK6EB7M1N/ISeWfygBYIjsQGsOOJxKfHQ4VZLcCZEUOeGHrGRqH6DYxV7gaBUpU+1RinhkKr+Ufg9EhSKc0ufUweR73pMjxwJroVS9SHSDcbI3xepoTqqogeCIqs9exbK5t0H5f8W2Zyib0JQao8IhmhKvuGouyuiVewfsicokALaPQnNyAHEX+V/EdEhD87TnqCciUEBaOLPY8/U49BvxXMRwaVQOUyM8lypb4ZjCxGpfO9d7AhKBYIkzZV610cLkEPEhdrnENTxuRKIsKiV5bQwa5EoZrcQdgT/CR0XwFU6ue6I562IGrmbo0p4hqIB3KUMsOWRcDJ2czQnKGVD+6gYcB/+YTMjIMTs3bWc4Fao5A4LLnsiOAklsgvnLlT+JKEBLIXWpamI04gLgaLpXK/LCArpEaS24+jvxtvy/5EQYoLwQFAo1CWRbsHfxWZGQIjJ47SMoEhUTWtViysNu6gSDmm2R6UERVJbigouRVsZ9dDoCsS9mVev5JbgEK2z8m6HzYyAEJMtESXz2ykwhXJIjelL+BrpIkwJikScVGxFITWewAJ7cWrFU4JCA4i8FbyZYxMksFDSfJ6S2YMUqfsh7lgQoxF+Y3dIU0dDSZUuE8GF7EUkGyUwhBlBGRsDqAsMzdphWVtgt0qsjBLytEMsuPzSoBabGf7EXjJJEoKRSM4HCS66eAGXlrywD2HiLymZUIW4obqIk/zRnNtlTAyBkjGiMKszMdlfoWiDXYjpLROCdyIEkeCin31YtuB3SCEhKJEuQKUcxspC/B3YhRi4UCLBICmfNjwDz2R2IQaulURtDImFTEktYmbemd1iGCgJV5uU/BnNIzYz3AYBJkqifhLnI8yGmqSlGrfNbfgmUyUQS2B9rCpnhs0MsxADnxIESd1PxSNwhQKzEBP/KH5pp7dpaGJSEDPDK8TEK8UvkcMjeufKKlTstPIKMeGz4vfUNHU/T+ZeZSE+bsAqxPReFbsLr637uY6MM8+kX7Ag6ir28hFD3c+76Tn4g7BGN9GH4hYfiQO9hzFxgKc0pxATzNkJmvsS3Bm6zmEzw2kVgg03warSwrG+ayfJbjBWfPATrG4Oou99hc0MY5qPf4piNxThQRfSYqGbMe5NCPJaUSxsEmj76+FpzZfIjP4xb/T0eBvGaEMfiH0fPiGm1+V11XANkxa0xyXxXtlSteFWscpWpDuPdkVOyRrDaXA2IWb4rFgT5lhw6eh3xUvcCCHGh/y5hJj4lzUexAetE4NPEqQZLj6wloa+DJcQ05+xEsQbWrplA84g5vgtPxbPba55BQ+qs2ELT3ofiEVmwPrf2j4h5QiKVCUyCTHwqBgzdeSES55y7elPR94MixxwmoMpioM7xSdaUTd0Zy0DkkbMcNUtkCB6KY8QA5eKrzUOOWh99CmBHuBPUczU40JuHiEGxoqvlJIctC6klGGj3REnxwiKbKEsDmkqvnB52+SgdclHCvVnCK/f9tEtcYI4NJMgSghy+WrElJRd5sDQg/DQXRC7sRzvFb6mEjYPQXrQGs8xWGkZfu7+juTDGcw7/KQEeTZCctCahq3woT2rfLuLoLCZYRBiklmjuM6Wk4PWmgEYElcnwzjvMU8+UehtZpJpr5j0DrKPaaOUyHDa9Tn9Y1Lc5v9iMEoJssQmxEgaonLDcdD7dCFiM+MtmwR5pRNHREhCVuM2ZujDn6Yy8HkR78WTlmymto/h9BeZeubMWKy0qe/RHEjGyneLTl3ElKC/YkXd0Io2HJG+w1tnBcRn9RRi0q05JegfXZKVVT3tDcnTRwjJv/i91ign6J85JIJLjQcP+uziC/GGvN4sCzKV988oneBSt6xhrY2CRzjn4SXEZPMqI+jbt4akluqdkLA+g5rCK2ubvVZG0HMRkuLkJl8saHYfnY8Qkxll5f2dNHU/zXZWwN61Dh5CTN4EZXf6zGsnJIJLwyQBzBtcfu3+armtzgl6tRkkDkjjcqUhzmhr4J5Ryb3HnKBXZELMRXPnNqAlJxjOjuTO+diFqR4ESUrTSjoxdOZ1/LUidqrjjqCHt0YFF6uvBcuaKwVdg52d07Aj6GGsiOBiGcbFYc0ltG5CzN493mdSnAkS/bnTs3yhqOaKKLddev9ee4LO+W2ShXCYUnoJag+3yqC96dsTdA29SEWrU4dZ0Dav3MPl4x+SfIdkn+3E2r8anl5ueQaDBJXDRYg5eFcHgm4bKo10HTNFBgkqx9zeIT3oCAeCbhsq7Wzr2o7RIEFlsBdijjrCMR/ttKESwcUjRWeQoFJYO6TH+XAk6GJmyEFrr/yOQYLq2AsxBR2hoCg4ZHjIwvFLZRokKPt4ruBdFQjaz3Ta1do3dDZdg2U5RwumT7n/ikZN8K9vMUhQdgai6DgUCVp/fiK4MIip8E8nQdkt7WIEXlL1LIeQdrblOPQQ9zUS1IdNSULpUsISQctNmsTjPIdMNBKUnTta2rvKuqzVENLOtlwFWCRRbpXhLsfQZYJWb0g/NNtBNixBWX34cg5MOf8SdUMZq6PLElTXZmmj2AsRtNgLqYLCeZY0OqajRlbXHAcow4BrI9aNzVW07JbBfFsazCfpq97M7G5Rx64CJmgxzaIQwZpDNUKA6A3Abt6TeiJS3SJ05YsbAmurRbxjQlCsnXgroMca6EUQUp04WwE9l6K56UKoy1ob0EhyGoJCLZBaQIhrqvUExZrei0N3NlN7GUvzzfCsoE1baQn+pRtqjxiS29WMBP/MHcpFGO5TNtwXZOXengcMEo6B4IXU5RNiMCRzjPfwytxTK4eQlDvWEPxjy9B8obn5sm/9geIzhVm6qbiufS3U318AFcJNBcGRucPGmaGqZqqCoEArPhnE2h2+AUGZnnLsCL+rClEqCcr0oGdGVN2boJqgVH9jRgQ11zrVEBS7M5MLQV09Xx3BzuqsGQa1hcO1BDWNC84H9fwaEDzjMWzArwlBfOb9bBCZb6a0I3imSZqe/rCeC8GzzJUOhxXVX7YEO5OzC4Bhbbr61olg59LQUutUMLTIcCfYGX8L3DvjDCBluN4ECwfCT46ovljfhWDimJ7HQowbHLdwIti5xZ18TgLoNjMvDgQ7I9zJp31E1a3pPAmm0/S0eQyIG3gvPgQ7l8EJBzGoKJrlIpi6pqcaxH7NCQsmgp3BaQYxgueaU0BcBFPvu/2cKUQVdfncBDvXy5bnaUzr+0UJJu53r8V52oPXRqEDJ8FUnmmJYgSbRke2uQl2rmZtUIzgzd528hBMPJuFNMUIlL4FTTsEE4o/IOiCh7D2o+dPMJmoyVqUCYZjWOr7lrRLMMHTHNij4QhgZREVGcFCsNN5+QXOvT/ow/reJigyg4lggqcuF8cYYGEZM5jBRzAxONMl+IbEydjByn/lHcFJMMH48RXA2YsbJt9n4eRxmsFMMMXtbA3WszVI5iW83jfJVdtBgGCC0WSWzNaEZZMtMkq5wfM927IrQYZghpunn/f01aE/7OmIRmHGDNbPD3eurnQ9BAlmGL1MHhbbOWjwtvyaTW9r+jx4Q5rgARfjm5fBbYbB5c31yCE4d8L/0VGz6xEYo7EAAAAASUVORK5CYII=;" parent="1" vertex="1">
          <mxGeometry x="215.29000000000002" y="315" width="64.71" height="65" as="geometry" />
        </mxCell>
        <mxCell id="AhVlZIoh6rpYxklJBr56-25" style="edgeStyle=orthogonalEdgeStyle;rounded=0;orthogonalLoop=1;jettySize=auto;html=1;" parent="1" edge="1">
          <mxGeometry relative="1" as="geometry">
            <mxPoint x="180" y="240" as="targetPoint" />
            <mxPoint x="200" y="345" as="sourcePoint" />
          </mxGeometry>
        </mxCell>
        <mxCell id="AhVlZIoh6rpYxklJBr56-8" value="" style="rounded=0;whiteSpace=wrap;html=1;strokeWidth=1;perimeterSpacing=100;fillColor=none;" parent="1" vertex="1">
          <mxGeometry x="207.5" y="304.5" width="440.5" height="80" as="geometry" />
        </mxCell>
        <mxCell id="AhVlZIoh6rpYxklJBr56-9" value="" style="rounded=0;whiteSpace=wrap;html=1;strokeWidth=2;perimeterSpacing=100;fillColor=none;" parent="1" vertex="1">
          <mxGeometry x="130" y="158" width="140" height="80" as="geometry" />
        </mxCell>
        <mxCell id="AhVlZIoh6rpYxklJBr56-23" style="edgeStyle=orthogonalEdgeStyle;rounded=0;orthogonalLoop=1;jettySize=auto;html=1;exitX=0.508;exitY=0.641;exitDx=0;exitDy=0;exitPerimeter=0;" parent="1" source="AhVlZIoh6rpYxklJBr56-10" edge="1">
          <mxGeometry relative="1" as="geometry">
            <mxPoint x="620" y="300" as="targetPoint" />
            <Array as="points">
              <mxPoint x="620" y="239" />
            </Array>
          </mxGeometry>
        </mxCell>
        <mxCell id="AhVlZIoh6rpYxklJBr56-10" value="" style="rounded=0;whiteSpace=wrap;html=1;strokeWidth=2;perimeterSpacing=100;fillColor=none;" parent="1" vertex="1">
          <mxGeometry x="560" y="160" width="130" height="80" as="geometry" />
        </mxCell>
        <mxCell id="AhVlZIoh6rpYxklJBr56-17" value="&lt;b&gt;&lt;font style=&quot;font-size: 14px&quot;&gt;source control&lt;/font&gt;&lt;/b&gt;" style="rounded=0;whiteSpace=wrap;html=1;strokeWidth=3;opacity=0;" parent="1" vertex="1">
          <mxGeometry x="140" y="164" width="120" height="60" as="geometry" />
        </mxCell>
        <mxCell id="AhVlZIoh6rpYxklJBr56-19" value="&lt;span style=&quot;font-size: 14px&quot;&gt;&lt;b&gt;pull code &amp;gt; build &amp;gt; push image&lt;/b&gt;&lt;/span&gt;" style="rounded=0;whiteSpace=wrap;html=1;strokeWidth=3;opacity=0;" parent="1" vertex="1">
          <mxGeometry x="290" y="300" width="220" height="60" as="geometry" />
        </mxCell>
        <mxCell id="AhVlZIoh6rpYxklJBr56-24" value="&lt;span style=&quot;font-size: 14px&quot;&gt;&lt;b&gt;pull image&lt;/b&gt;&lt;/span&gt;" style="rounded=0;whiteSpace=wrap;html=1;strokeWidth=3;opacity=0;" parent="1" vertex="1">
          <mxGeometry x="567" y="238" width="120" height="60" as="geometry" />
        </mxCell>
      </root>
    </mxGraphModel>
  </diagram>
</mxfile>
